<svg id="svg" version="1.1" xmlns="http://www.w3.org/2000/svg" xmlns:xlink="http://www.w3.org/1999/xlink" width="48" height="48" viewBox="0, 0, 400,400"><g id="svgg"><path id="path0" d="M199.000 101.223 C 197.020 101.389,193.960 101.734,192.200 101.989 C 190.440 102.245,187.908 102.600,186.573 102.779 C 185.237 102.958,183.615 103.379,182.967 103.714 C 182.319 104.048,180.892 104.451,179.795 104.608 C 178.698 104.766,176.990 105.225,176.000 105.628 C 175.010 106.031,173.390 106.559,172.400 106.799 C 170.811 107.186,166.468 109.040,164.800 110.045 C 164.470 110.243,163.750 110.598,163.200 110.832 C 160.971 111.782,157.024 113.842,156.184 114.494 C 155.692 114.876,154.054 115.841,152.545 116.639 C 151.035 117.437,149.656 118.340,149.480 118.645 C 149.304 118.950,148.615 119.482,147.949 119.826 C 146.404 120.625,143.945 122.538,141.400 124.920 C 140.300 125.949,139.278 126.793,139.129 126.796 C 138.979 126.798,138.619 127.052,138.329 127.361 C 138.038 127.669,136.270 129.526,134.400 131.487 C 128.176 138.015,127.233 139.103,126.540 140.557 C 126.162 141.350,125.710 142.000,125.537 142.000 C 125.364 142.000,124.504 143.125,123.626 144.500 C 122.748 145.875,121.858 147.201,121.648 147.447 C 121.438 147.693,120.805 148.806,120.241 149.919 C 119.677 151.032,119.030 152.058,118.803 152.198 C 118.245 152.543,116.162 157.083,115.811 158.719 C 115.655 159.445,115.184 160.253,114.764 160.515 C 114.344 160.778,114.000 161.201,114.000 161.456 C 114.000 161.711,113.370 163.551,112.600 165.545 C 111.830 167.539,111.200 169.589,111.200 170.100 C 111.200 170.612,110.836 171.744,110.390 172.615 C 109.945 173.487,109.481 174.920,109.360 175.800 C 109.239 176.680,108.797 178.390,108.377 179.600 C 105.922 186.680,105.821 216.599,108.236 221.270 C 108.577 221.928,109.024 223.515,109.230 224.796 C 109.437 226.077,109.960 227.906,110.394 228.862 C 110.828 229.818,111.186 231.003,111.191 231.496 C 111.203 232.671,114.298 240.811,115.053 241.653 C 115.375 242.012,115.817 242.952,116.035 243.743 C 116.253 244.533,117.084 246.309,117.881 247.690 C 118.678 249.070,119.662 250.830,120.068 251.600 C 120.474 252.370,121.056 253.186,121.362 253.414 C 121.667 253.641,122.209 254.527,122.567 255.382 C 122.924 256.237,123.572 257.185,124.008 257.491 C 124.444 257.796,124.800 258.295,124.800 258.600 C 124.800 258.905,125.131 259.390,125.537 259.677 C 125.942 259.965,126.510 260.650,126.800 261.200 C 128.640 264.693,143.509 279.600,145.153 279.600 C 145.419 279.600,146.123 280.095,146.718 280.700 C 148.029 282.033,151.581 284.400,152.271 284.400 C 152.545 284.400,153.108 284.764,153.522 285.209 C 154.310 286.054,158.663 288.800,159.217 288.800 C 159.539 288.800,164.488 291.306,165.600 292.033 C 166.704 292.754,178.959 296.841,182.400 297.636 C 192.107 299.879,190.891 299.772,206.600 299.756 C 221.113 299.741,221.481 299.721,225.600 298.713 C 227.910 298.147,230.610 297.558,231.600 297.404 C 232.590 297.249,233.782 296.881,234.249 296.586 C 234.716 296.290,236.246 295.751,237.649 295.388 C 239.052 295.025,240.380 294.582,240.600 294.402 C 240.820 294.223,242.080 293.765,243.400 293.386 C 244.720 293.007,246.250 292.385,246.800 292.004 C 247.350 291.623,248.461 291.097,249.268 290.835 C 250.075 290.573,250.938 290.116,251.184 289.819 C 251.431 289.522,252.048 289.174,252.555 289.047 C 253.636 288.776,257.881 286.353,258.916 285.416 C 259.309 285.060,260.119 284.557,260.716 284.299 C 261.910 283.782,267.296 279.943,268.669 278.631 C 269.146 278.174,270.251 277.286,271.124 276.657 C 271.997 276.028,272.940 275.086,273.220 274.563 C 273.499 274.041,274.058 273.508,274.462 273.380 C 275.561 273.032,276.400 272.047,276.400 271.107 C 276.400 270.414,249.961 243.568,247.538 241.800 C 247.236 241.580,246.699 241.172,246.345 240.892 C 245.805 240.468,245.511 240.546,244.550 241.366 C 239.597 245.595,237.082 247.377,234.000 248.843 C 233.010 249.313,231.921 249.942,231.580 250.239 C 231.239 250.536,230.168 251.058,229.200 251.400 C 228.232 251.742,227.161 252.264,226.820 252.561 C 226.479 252.858,224.220 253.493,221.800 253.972 C 219.380 254.451,216.629 255.103,215.686 255.421 C 212.288 256.568,200.286 256.211,194.624 254.795 C 191.998 254.138,189.495 253.600,189.063 253.600 C 188.631 253.600,187.324 253.149,186.158 252.598 C 184.993 252.046,183.625 251.412,183.120 251.188 C 182.614 250.964,181.120 250.160,179.800 249.401 C 178.480 248.642,176.768 247.702,175.996 247.311 C 172.793 245.689,164.517 238.159,162.000 234.576 C 161.670 234.107,160.800 232.795,160.066 231.661 C 159.332 230.527,158.581 229.600,158.397 229.600 C 158.213 229.600,157.845 228.925,157.580 228.100 C 157.316 227.275,156.882 226.330,156.617 226.000 C 156.352 225.670,155.807 224.500,155.405 223.400 C 155.004 222.300,154.343 220.971,153.938 220.446 C 153.532 219.921,153.200 219.089,153.200 218.597 C 153.200 218.105,152.752 216.331,152.205 214.654 C 150.128 208.291,149.931 194.189,151.828 187.589 C 152.174 186.385,152.696 184.370,152.988 183.112 C 153.281 181.854,153.875 180.234,154.310 179.512 C 154.745 178.790,155.779 176.670,156.609 174.800 C 157.439 172.930,158.785 170.590,159.600 169.600 C 160.416 168.610,161.537 167.080,162.092 166.200 C 163.232 164.392,170.156 157.200,170.756 157.200 C 170.971 157.200,172.229 156.332,173.551 155.271 C 174.873 154.210,178.260 152.215,181.077 150.839 C 183.895 149.462,186.740 148.062,187.400 147.728 C 191.954 145.422,207.990 143.992,214.400 145.321 C 216.050 145.662,218.750 146.142,220.400 146.386 C 222.050 146.631,224.300 147.255,225.400 147.773 C 226.500 148.291,228.660 149.291,230.200 149.995 C 231.740 150.699,233.270 151.442,233.600 151.646 C 233.930 151.850,234.831 152.328,235.603 152.709 C 237.106 153.449,238.494 154.474,242.893 158.093 C 245.354 160.117,245.781 160.332,246.540 159.928 C 247.875 159.218,276.617 130.676,276.582 130.095 C 276.544 129.456,275.451 127.600,275.112 127.600 C 274.915 127.600,274.089 126.979,273.277 126.219 C 270.480 123.604,266.554 120.439,265.578 120.012 C 265.040 119.778,263.700 118.869,262.600 117.994 C 261.500 117.118,259.970 116.194,259.200 115.940 C 258.430 115.685,257.582 115.170,257.316 114.794 C 256.870 114.164,254.797 113.078,248.000 109.914 C 246.570 109.249,244.770 108.388,244.000 108.001 C 243.230 107.614,241.610 107.072,240.400 106.795 C 239.190 106.518,237.532 105.956,236.716 105.546 C 235.900 105.136,234.640 104.796,233.916 104.791 C 233.192 104.786,231.794 104.417,230.808 103.970 C 229.823 103.523,227.663 102.975,226.008 102.752 C 224.354 102.528,221.830 102.175,220.400 101.967 C 213.217 100.919,205.723 100.658,199.000 101.223 " stroke="none" fill="#f8f9fb" fill-rule="evenodd"></path><path id="path1" d="M0.000 200.000 L 0.000 400.000 200.000 400.000 L 400.000 400.000 400.000 200.000 L 400.000 0.000 200.000 0.000 L 0.000 0.000 0.000 200.000 M213.000 101.206 C 215.640 101.416,218.970 101.758,220.400 101.967 C 221.830 102.175,224.354 102.528,226.008 102.752 C 227.663 102.975,229.823 103.523,230.808 103.970 C 231.794 104.417,233.192 104.786,233.916 104.791 C 234.640 104.796,235.900 105.136,236.716 105.546 C 237.532 105.956,239.190 106.518,240.400 106.795 C 241.610 107.072,243.230 107.614,244.000 108.001 C 244.770 108.388,246.570 109.249,248.000 109.914 C 254.797 113.078,256.870 114.164,257.316 114.794 C 257.582 115.170,258.430 115.685,259.200 115.940 C 259.970 116.194,261.500 117.118,262.600 117.994 C 263.700 118.869,265.040 119.778,265.578 120.012 C 266.554 120.439,270.480 123.604,273.277 126.219 C 274.089 126.979,274.915 127.600,275.112 127.600 C 275.451 127.600,276.544 129.456,276.582 130.095 C 276.617 130.676,247.875 159.218,246.540 159.928 C 245.781 160.332,245.354 160.117,242.893 158.093 C 238.494 154.474,237.106 153.449,235.603 152.709 C 234.831 152.328,233.930 151.850,233.600 151.646 C 233.270 151.442,231.740 150.699,230.200 149.995 C 228.660 149.291,226.500 148.291,225.400 147.773 C 224.300 147.255,222.050 146.631,220.400 146.386 C 218.750 146.142,216.050 145.662,214.400 145.321 C 207.990 143.992,191.954 145.422,187.400 147.728 C 186.740 148.062,183.895 149.462,181.077 150.839 C 178.260 152.215,174.873 154.210,173.551 155.271 C 172.229 156.332,170.971 157.200,170.756 157.200 C 170.156 157.200,163.232 164.392,162.092 166.200 C 161.537 167.080,160.416 168.610,159.600 169.600 C 158.785 170.590,157.439 172.930,156.609 174.800 C 155.779 176.670,154.745 178.790,154.310 179.512 C 153.875 180.234,153.281 181.854,152.988 183.112 C 152.696 184.370,152.174 186.385,151.828 187.589 C 149.931 194.189,150.128 208.291,152.205 214.654 C 152.752 216.331,153.200 218.105,153.200 218.597 C 153.200 219.089,153.532 219.921,153.938 220.446 C 154.343 220.971,155.004 222.300,155.405 223.400 C 155.807 224.500,156.352 225.670,156.617 226.000 C 156.882 226.330,157.316 227.275,157.580 228.100 C 157.845 228.925,158.213 229.600,158.397 229.600 C 158.581 229.600,159.332 230.527,160.066 231.661 C 160.800 232.795,161.670 234.107,162.000 234.576 C 162.591 235.418,167.632 240.834,168.800 241.882 C 170.867 243.737,174.805 246.708,175.996 247.311 C 176.768 247.702,178.480 248.642,179.800 249.401 C 181.120 250.160,182.614 250.964,183.120 251.188 C 183.625 251.412,184.993 252.046,186.158 252.598 C 187.324 253.149,188.631 253.600,189.063 253.600 C 189.495 253.600,191.998 254.138,194.624 254.795 C 200.286 256.211,212.288 256.568,215.686 255.421 C 216.629 255.103,219.380 254.451,221.800 253.972 C 224.220 253.493,226.479 252.858,226.820 252.561 C 227.161 252.264,228.232 251.742,229.200 251.400 C 230.168 251.058,231.239 250.536,231.580 250.239 C 231.921 249.942,233.010 249.313,234.000 248.843 C 237.082 247.377,239.597 245.595,244.550 241.366 C 245.511 240.546,245.805 240.468,246.345 240.892 C 246.699 241.172,247.236 241.580,247.538 241.800 C 249.961 243.568,276.400 270.414,276.400 271.107 C 276.400 272.047,275.561 273.032,274.462 273.380 C 274.058 273.508,273.499 274.041,273.220 274.563 C 272.940 275.086,271.997 276.028,271.124 276.657 C 270.251 277.286,269.146 278.174,268.669 278.631 C 267.296 279.943,261.910 283.782,260.716 284.299 C 260.119 284.557,259.309 285.060,258.916 285.416 C 257.881 286.353,253.636 288.776,252.555 289.047 C 252.048 289.174,251.431 289.522,251.184 289.819 C 250.938 290.116,250.075 290.573,249.268 290.835 C 248.461 291.097,247.350 291.623,246.800 292.004 C 246.250 292.385,244.720 293.007,243.400 293.386 C 242.080 293.765,240.820 294.223,240.600 294.402 C 240.380 294.582,239.052 295.025,237.649 295.388 C 236.246 295.751,234.716 296.290,234.249 296.586 C 233.782 296.881,232.590 297.249,231.600 297.404 C 230.610 297.558,227.910 298.147,225.600 298.713 C 221.481 299.721,221.113 299.741,206.600 299.756 C 190.891 299.772,192.107 299.879,182.400 297.636 C 178.959 296.841,166.704 292.754,165.600 292.033 C 164.488 291.306,159.539 288.800,159.217 288.800 C 158.663 288.800,154.310 286.054,153.522 285.209 C 153.108 284.764,152.545 284.400,152.271 284.400 C 151.581 284.400,148.029 282.033,146.718 280.700 C 146.123 280.095,145.419 279.600,145.153 279.600 C 143.509 279.600,128.640 264.693,126.800 261.200 C 126.510 260.650,125.942 259.965,125.537 259.677 C 125.131 259.390,124.800 258.905,124.800 258.600 C 124.800 258.295,124.444 257.796,124.008 257.491 C 123.572 257.185,122.924 256.237,122.567 255.382 C 122.209 254.527,121.667 253.641,121.362 253.414 C 121.056 253.186,120.474 252.370,120.068 251.600 C 119.662 250.830,118.678 249.070,117.881 247.690 C 117.084 246.309,116.253 244.533,116.035 243.743 C 115.817 242.952,115.375 242.012,115.053 241.653 C 114.298 240.811,111.203 232.671,111.191 231.496 C 111.186 231.003,110.828 229.818,110.394 228.862 C 109.960 227.906,109.437 226.077,109.230 224.796 C 109.024 223.515,108.577 221.928,108.236 221.270 C 105.821 216.599,105.922 186.680,108.377 179.600 C 108.797 178.390,109.239 176.680,109.360 175.800 C 109.481 174.920,109.945 173.487,110.390 172.615 C 110.836 171.744,111.200 170.612,111.200 170.100 C 111.200 169.589,111.830 167.539,112.600 165.545 C 113.370 163.551,114.000 161.711,114.000 161.456 C 114.000 161.201,114.344 160.778,114.764 160.515 C 115.184 160.253,115.655 159.445,115.811 158.719 C 116.162 157.083,118.245 152.543,118.803 152.198 C 119.030 152.058,119.677 151.032,120.241 149.919 C 120.805 148.806,121.438 147.693,121.648 147.447 C 121.858 147.201,122.748 145.875,123.626 144.500 C 124.504 143.125,125.364 142.000,125.537 142.000 C 125.710 142.000,126.162 141.350,126.540 140.557 C 127.233 139.103,128.176 138.015,134.400 131.487 C 136.270 129.526,138.038 127.669,138.329 127.361 C 138.619 127.052,138.979 126.798,139.129 126.796 C 139.278 126.793,140.300 125.949,141.400 124.920 C 143.945 122.538,146.404 120.625,147.949 119.826 C 148.615 119.482,149.304 118.950,149.480 118.645 C 149.656 118.340,151.035 117.437,152.545 116.639 C 154.054 115.841,155.692 114.876,156.184 114.494 C 157.024 113.842,160.971 111.782,163.200 110.832 C 163.750 110.598,164.470 110.243,164.800 110.045 C 166.468 109.040,170.811 107.186,172.400 106.799 C 173.390 106.559,175.010 106.031,176.000 105.628 C 176.990 105.225,178.698 104.766,179.795 104.608 C 180.892 104.451,182.319 104.048,182.967 103.714 C 183.615 103.379,185.237 102.958,186.573 102.779 C 187.908 102.600,190.440 102.245,192.200 101.989 C 199.868 100.876,205.962 100.647,213.000 101.206 " stroke="none" fill="#1353ec" fill-rule="evenodd"></path></g></svg>